<?xml version="1.0" standalone="no"?><!DOCTYPE svg PUBLIC "-//W3C//DTD SVG 1.1//EN" "http://www.w3.org/Graphics/SVG/1.1/DTD/svg11.dtd"><svg t="1700544435404" class="icon" viewBox="0 0 1024 1024" version="1.1" xmlns="http://www.w3.org/2000/svg" p-id="13211" xmlns:xlink="http://www.w3.org/1999/xlink" width="200" height="200"><path d="M270.921 254.98h572.971c17.673 0 32-14.327 32-32s-14.327-32-32-32H270.921c-17.673 0-32 14.327-32 32s14.328 32 32 32z" fill="#409EFF" p-id="13212"></path><path d="M158.47 224.48m-32 0a32 32 0 1 0 64 0 32 32 0 1 0-64 0Z" fill="#409EFF" p-id="13213"></path><path d="M843.893 480.98H270.921c-17.673 0-32 14.327-32 32 0 17.673 14.327 32 32 32h572.971c17.673 0 32-14.327 32-32 0.001-17.673-14.327-32-31.999-32z" fill="#409EFF" p-id="13214"></path><path d="M158.47 514.48m-32 0a32 32 0 1 0 64 0 32 32 0 1 0-64 0Z" fill="#409EFF" p-id="13215"></path><path d="M843.893 766.98H270.921c-17.673 0-32 14.327-32 32s14.327 32 32 32h572.971c17.673 0 32-14.327 32-32s-14.327-32-31.999-32z" fill="#409EFF" p-id="13216"></path><path d="M158.47 800.48m-32 0a32 32 0 1 0 64 0 32 32 0 1 0-64 0Z" fill="#409EFF" p-id="13217"></path></svg>