<?xml version="1.0" standalone="no"?><!DOCTYPE svg PUBLIC "-//W3C//DTD SVG 1.1//EN" "http://www.w3.org/Graphics/SVG/1.1/DTD/svg11.dtd"><svg t="1700544059403" class="icon" viewBox="0 0 1024 1024" version="1.1" xmlns="http://www.w3.org/2000/svg" p-id="5929" xmlns:xlink="http://www.w3.org/1999/xlink" width="200" height="200"><path d="M848 704.1H712.2v-572a4 4 0 0 0-4-4h-64a3.9 3.9 0 0 0-4 4v747.8a16 16 0 0 0 26.2 12.3l191.8-159.8c11.5-9.6 4.7-28.3-10.2-28.3zM357.8 131.8l-192 160c-11.5 9.6-4.7 28.3 10.2 28.3h136v571.8a4 4 0 0 0 4 4h64a4 4 0 0 0 4-4V144.1a16 16 0 0 0-26.2-12.3z" p-id="5930" fill="#409EFF"></path></svg>