<?xml version="1.0" encoding="UTF-8"?>
<svg width="14px" height="14px" viewBox="0 0 14 14" version="1.1" xmlns="http://www.w3.org/2000/svg" xmlns:xlink="http://www.w3.org/1999/xlink">
    <!-- Generator: Sketch 64 (93537) - https://sketch.com -->
    <title>ic_gailan</title>
    <desc>Created with Sketch.</desc>
    <g id="ic_gailan" stroke="none" stroke-width="1" fill="none" fill-rule="evenodd">
        <g id="概览" transform="translate(1.000000, 1.000000)" fill="#FFFFFF" fill-rule="nonzero">
            <path d="M11.9186964,9.37183975 C11.9218522,8.66959029 11.64504,7.99514228 11.1495732,7.49741815 L11.1495733,7.49741826 C10.6541456,6.9997458 9.9808403,6.72002976 9.27861119,6.72002976 L6.62936521,6.72002976 L6.62936521,9.37184299 C6.63447467,10.8319448 7.82016871,12.0125263 9.28027051,12.0110249 C9.98056636,12.0116246 10.6523094,11.7339107 11.1474756,11.2387444 L11.1474756,11.2387445 C11.6427186,10.7436565 11.9207722,10.0719604 11.9203562,9.37169587 L11.9187027,9.37169587 L11.9186964,9.37183975 Z M9.34909776,2.22154047e-05 C8.64820081,-0.00235962218 7.97540585,0.27505371 7.47993589,0.770670812 L7.47993598,0.770670725 C6.9844128,1.2663254 6.70723115,1.9392675 6.70989185,2.64013002 L6.70989185,5.29028399 L9.34909159,5.29028399 C10.0520924,5.29043421 10.7263902,5.01136782 11.2235132,4.51439821 L11.2235132,4.51439823 C11.7206738,4.01734879 12,3.34314185 12,2.64013317 C12,1.93803399 11.7203325,1.26493847 11.2229121,0.76946852 L11.2229121,0.769468539 C10.7254713,0.274026762 10.0511642,-0.00285590125 9.34910098,2.22154047e-05 L9.34909776,2.22154047e-05 Z M5.44078392e-07,9.37183975 C-0.00044974476,8.66853835 0.278616647,7.99394005 0.775886807,7.49652587 L0.77588677,7.49652591 C1.27307083,6.9991086 1.94761747,6.71976514 2.65090322,6.72003888 L5.29099163,6.72003888 L5.29099163,9.37185231 C5.29099163,10.8328558 4.10649982,12.0173413 2.6455026,12.0173413 C1.18449913,12.0173413 5.44078392e-07,10.8328495 5.44078392e-07,9.37185231 L5.44078392e-07,9.37183975 Z M2.65225263,2.49487653e-05 C3.35420153,-0.00266017834 4.02834899,0.27430232 4.52562542,0.769769144 L4.52562545,0.76976918 C5.02288779,1.26517652 5.30241284,1.93820472 5.30241284,2.6401364 L5.30241284,5.29029031 L2.65225893,5.29029031 C1.95031003,5.29029031 1.27721451,5.01077309 0.781891706,4.51350293 L0.781891677,4.5135029 C0.286437376,4.01622961 0.00945139716,3.34209624 0.0121472564,2.64013011 L0.0121472564,2.64012622 C0.00942902808,1.93910403 0.286737917,1.26601321 0.782495905,0.7703695 L0.782495759,0.770369646 C1.27817391,0.274663317 1.95124438,-0.00263730723 2.65225248,2.49487653e-05 L2.65225263,2.49487653e-05 Z" id="形状"></path>
        </g>
    </g>
</svg>