<?xml version="1.0" encoding="UTF-8"?>
<svg width="14px" height="14px" viewBox="0 0 14 14" version="1.1" xmlns="http://www.w3.org/2000/svg" xmlns:xlink="http://www.w3.org/1999/xlink">
    <!-- Generator: Sketch 64 (93537) - https://sketch.com -->
    <title>ic_xunlian</title>
    <desc>Created with Sketch.</desc>
    <g id="ic_xunlian" stroke="none" stroke-width="1" fill="none" fill-rule="evenodd">
        <path d="M13.5,4.97063498 L13.5,10.1818061 L13.5,10.1818492 C13.5,10.385862 13.404066,10.5775403 13.2418403,10.6972848 L13.1787154,10.738012 L7.55371577,13.9198184 L7.55371581,13.9198184 C7.38960059,14.0127211 7.19315774,14.0255725 7.01871536,13.9548184 L6.94621542,13.9198184 L1.32121582,10.738012 L1.32121575,10.7380119 C1.14620502,10.6389842 1.02838471,10.4605799 1.00434077,10.2581943 L1,10.1818056 L1,9.07071707 L2.24999942,9.77771605 L2.24999942,9.80698877 L7.24999418,12.6349877 L12.2499889,9.80698877 L12.2499889,5.67763396 L13.5,4.97063498 L13.5,4.97063498 Z M7.24999551,3.81818884 L10.0624953,5.4090995 L10.0624953,8.5909059 L7.24999551,10.1818166 L4.43749571,8.5909059 L4.43749571,5.4090995 L7.24999551,3.81818884 Z M7.48124598,0.0445655153 L7.55374593,0.080201753 L13.1787455,3.26200816 L13.1787456,3.26200818 C13.2936406,3.32698633 13.3854936,3.42718893 13.4412455,3.5483712 L12.2493711,4.22100662 L12.2499961,4.19237032 L7.25000135,1.3643714 L2.25000659,4.19237032 L2.25000659,8.32172513 L1.00000711,7.61472614 L1.00000711,3.81819378 L1.00000711,3.81815075 C1.00000711,3.61413798 1.09594108,3.4224597 1.2581668,3.30271521 L1.32129174,3.26198797 L6.94629134,0.080181568 L6.94629125,0.0801816213 C7.11040647,-0.0127211061 7.30684933,-0.0255725417 7.4812917,0.0451816465 L7.48124598,0.0445655153 Z" id="形状" fill="#FFFFFF" fill-rule="nonzero"></path>
    </g>
</svg>