<?xml version="1.0" encoding="UTF-8"?>
<svg width="14px" height="14px" viewBox="0 0 14 14" version="1.1" xmlns="http://www.w3.org/2000/svg" xmlns:xlink="http://www.w3.org/1999/xlink">
    <!-- Generator: Sketch 64 (93537) - https://sketch.com -->
    <title>ic_yinyong</title>
    <desc>Created with Sketch.</desc>
    <g id="ic_yinyong" stroke="none" stroke-width="1" fill="none" fill-rule="evenodd">
        <path d="M1,5.24069473 C1,3.80038124 1.58592565,2.57240421 2.74981967,1.54208412 C3.91369665,0.512734324 5.32794707,0 6.98401727,0 C8.64063272,0 10.0543208,0.512734324 11.2341806,1.54208412 C12.4140403,2.57241986 13,3.80039689 13,5.24069473 C13,5.43835167 12.9920086,5.64187729 12.9685627,5.84050453 C12.9296794,5.87476193 12.9371425,5.94324545 12.9371425,5.97650127 L12.843376,6.46770147 C12.8044927,6.46770147 12.8125011,6.51663839 12.8125011,6.54989421 C12.7496436,6.73384193 12.6873314,6.89822741 12.6250021,7.04109441 L12.6250021,7.06849721 C12.6250021,7.06849721 12.6170278,7.07535182 12.5935649,7.09588435 C12.5078238,7.2935413 12.4295118,7.471636 12.3432255,7.61448735 C12.3432255,7.6340496 12.3357624,7.6418745 12.3123335,7.6418745 C12.2105927,7.82582222 12.0933803,7.99609202 11.9682276,8.1604775 C11.8435691,8.32487862 11.7104081,8.48727657 11.5617755,8.65166205 L11.5468662,8.66535562 L11.5308835,8.6790492 C11.4057138,8.80820698 11.2576264,8.93151173 11.0935564,9.06066952 C11.0935564,9.06066952 11.0781189,9.06847876 11.0466987,9.08805666 C10.9683867,9.13599199 10.9609406,9.17710401 10.8746542,9.25245779 C10.8357709,9.25245779 10.7808877,9.27202003 10.7808877,9.30723208 L10.4842019,9.51077335 L10.4213614,9.55185407 L10.3750149,9.57924121 C10.187516,9.70839899 10.0543379,9.85225194 9.96859683,10.0156515 C9.88229347,10.1800526 9.80452674,10.2955012 9.71824042,10.3708393 C9.63248232,10.4461774 9.4764036,10.4794489 9.24949308,10.4794489 L4.75002982,10.4794489 C4.5231193,10.4794489 4.36704058,10.4461774 4.28128248,10.3708393 C4.19497913,10.2955012 4.10922103,10.1800526 4.01547156,10.0156515 C3.92119388,9.85225194 3.78908926,9.70839899 3.62501917,9.57924121 C3.60104507,9.57924121 3.58559055,9.5723866 3.5621617,9.55185407 L3.51530401,9.51077335 L3.21860108,9.30723208 L3.12486866,9.25245779 L2.99968194,9.1428466 C2.99968194,9.1428466 2.96826172,9.11545946 2.90593247,9.06066952 L2.46860534,8.6790492 C2.46860534,8.6790492 2.46063102,8.67219459 2.45316786,8.66535562 L2.43716809,8.65166205 C2.14794536,8.32487862 1.89811717,8.00391692 1.68717235,7.64189015 C1.66372646,7.64189015 1.6557351,7.63503554 1.6557351,7.61448735 C1.569977,7.471636 1.49221026,7.29355695 1.40590691,7.09588435 C1.38247806,7.09588435 1.37503195,7.08902974 1.37503195,7.06849721 L1.37503195,7.04111006 C1.31215744,6.89822741 1.24984523,6.73384193 1.18698776,6.54989421 C1.18698776,6.54989421 1.17952461,6.53621629 1.17155028,6.50881349 L1.15609576,6.46771712 C1.11666714,6.32486577 1.08577514,6.16048029 1.06236333,5.97653257 C1.06236333,5.9432611 1.03092608,5.87477758 1.03092608,5.84149046 C1.00744611,5.64187729 1,5.43835167 1,5.24069473 L1,5.24069473 Z M4.53105955,11.353224 L9.53125266,11.353224 C9.82049243,11.353224 10.030892,11.5381577 10.030892,11.7906202 C10.030892,12.0430828 9.82049243,12.2270148 9.53125266,12.2270148 L4.53105955,12.2270148 C4.24183682,12.2270148 4.030892,12.0430671 4.030892,11.7906202 C4.030892,11.5381734 4.24183682,11.353224 4.53105955,11.353224 Z M4.74999574,13.0998041 L9.28087922,13.0998041 L7.43732712,13.9178033 C7.14808735,14.0273989 6.81996422,14.0273989 6.53072445,13.9178033 L4.74999574,13.0998041 Z M7.53105955,2.62035519 C8.13298498,2.62035519 8.70294494,2.83170571 9.23402153,3.26223164 C9.76564337,3.69080136 10.030892,4.22308228 10.030892,4.85810412 C10.030892,5.07630925 10.2418368,5.29550032 10.5310766,5.29550032 C10.8203164,5.29550032 11.0312441,5.07630925 11.0312441,4.85810412 C11.0312441,3.90997677 10.6796751,3.15852043 9.96857979,2.59295239 C9.25748445,2.02738435 8.44512538,1.74755032 7.53107659,1.74755032 C7.24185386,1.74755032 7.03090904,1.93151369 7.03090904,2.18394493 C7.03090904,2.43640747 7.24183682,2.62035519 7.53105955,2.62035519 L7.53105955,2.62035519 Z" id="形状" fill="#FFFFFF" fill-rule="nonzero"></path>
    </g>
</svg>