<?xml version="1.0" standalone="no"?><!DOCTYPE svg PUBLIC "-//W3C//DTD SVG 1.1//EN" "http://www.w3.org/Graphics/SVG/1.1/DTD/svg11.dtd"><svg class="icon" width="200px" height="186.69px" viewBox="0 0 1097 1024" version="1.1" xmlns="http://www.w3.org/2000/svg"><path d="M557.933714 50.761143a36.571429 36.571429 0 0 1 45.787429-10.093714l5.558857 3.584 412.745143 320.073142a36.571429 36.571429 0 0 1-16.091429 64.950858l-6.290285 0.512h-950.857143a36.571429 36.571429 0 0 1-6.582857-72.557715l6.582857-0.585143 843.995428-0.073142-328.338285-254.537143A36.571429 36.571429 0 0 1 554.422857 56.32l3.510857-5.558857zM490.496 1000.813714a36.571429 36.571429 0 0 1-45.787429 10.020572l-5.558857-3.510857L26.404571 687.250286a36.571429 36.571429 0 0 1 16.091429-64.950857L48.932571 621.714286h950.857143a36.571429 36.571429 0 0 1 6.582857 72.557714l-6.582857 0.585143H155.648l328.411429 254.537143a36.571429 36.571429 0 0 1 10.020571 45.787428l-3.657143 5.558857z" /></svg>