<?xml version="1.0" standalone="no"?><!DOCTYPE svg PUBLIC "-//W3C//DTD SVG 1.1//EN" "http://www.w3.org/Graphics/SVG/1.1/DTD/svg11.dtd"><svg class="icon" width="200px" height="175.04px" viewBox="0 0 1170 1024" version="1.1" xmlns="http://www.w3.org/2000/svg"><path d="M279.552 835.291429H172.470857a84.48 84.48 0 0 1-84.333714-84.406858V387.437714c0-46.592 37.741714-84.333714 84.333714-84.406857h107.081143c46.592 0 84.333714 37.814857 84.406857 84.406857v363.52c0 46.518857-37.814857 84.333714-84.406857 84.333715zM172.470857 382.171429a5.266286 5.266286 0 0 0-5.266286 5.266285v363.52c0 2.925714 2.413714 5.266286 5.266286 5.266286h107.081143c2.925714 0 5.266286-2.413714 5.266286-5.339429V387.437714a5.266286 5.266286 0 0 0-5.266286-5.266285H172.470857z m821.686857 453.12h-107.081143a84.48 84.48 0 0 1-84.406857-84.406858V547.84c0-46.592 37.814857-84.333714 84.406857-84.406857h107.081143c46.592 0 84.333714 37.814857 84.406857 84.406857v203.044571c0 46.592-37.814857 84.406857-84.406857 84.406858z m-107.081143-292.717715a5.339429 5.339429 0 0 0-5.266285 5.266286v203.044571c0 2.925714 2.340571 5.339429 5.266285 5.339429h107.081143c2.925714 0 5.266286-2.413714 5.266286-5.339429V547.84a5.266286 5.266286 0 0 0-5.266286-5.266286h-107.081143z m-250.148571 292.717715H529.700571a84.48 84.48 0 0 1-84.406857-84.406858V104.886857C445.44 58.294857 483.181714 20.553143 529.773714 20.48h107.081143c46.592 0 84.333714 37.814857 84.406857 84.406857v645.997714c0 46.665143-37.814857 84.406857-84.406857 84.406858zM529.700571 99.620571a5.266286 5.266286 0 0 0-5.266285 5.266286v645.997714c0 2.925714 2.340571 5.339429 5.266285 5.339429h107.081143c2.925714 0 5.339429-2.413714 5.339429-5.339429V104.886857a5.266286 5.266286 0 0 0-5.339429-5.266286H529.773714zM1066.422857 1009.371429H103.936a39.497143 39.497143 0 1 1 0-79.140572h962.413714a39.497143 39.497143 0 1 1 0 79.140572z" /></svg>