<?xml version="1.0" standalone="no"?><!DOCTYPE svg PUBLIC "-//W3C//DTD SVG 1.1//EN" "http://www.w3.org/Graphics/SVG/1.1/DTD/svg11.dtd"><svg class="icon" width="200px" height="200.00px" viewBox="0 0 1024 1024" version="1.1" xmlns="http://www.w3.org/2000/svg"><path d="M194.267429 534.235429c7.606857 0 13.458286-5.851429 13.458285-13.458286V272.676571a16.603429 16.603429 0 0 0-4.096-9.947428c59.099429-111.762286 177.883429-183.149714 307.2-183.149714 129.316571 0 248.100571 71.387429 307.2 183.734857a13.824 13.824 0 0 0-4.096 9.362285V520.777143c0 7.606857 5.851429 13.458286 13.458286 13.458286 77.238857 0 139.849143-61.44 139.849143-137.508572 0-47.981714-25.746286-93.037714-67.876572-117.613714-58.514286-160.329143-214.747429-267.995429-389.12-267.995429-174.372571 0-330.020571 107.666286-389.705142 267.995429-41.545143 25.161143-67.291429 69.632-67.291429 117.613714 0.585143 76.068571 63.780571 137.508571 141.019429 137.508572z m596.260571 117.028571c-5.266286-2.340571-11.117714-1.755429-15.213714 2.340571a389.046857 389.046857 0 0 1-264.484572 102.4 392.338286 392.338286 0 0 1-264.484571-101.814857 14.336 14.336 0 0 0-15.213714-2.340571C89.526857 723.236571 11.117714 846.701714 11.117714 999.424c0 7.606857 5.851429 13.458286 13.458286 13.458286h975.433143c7.606857 0 13.458286-5.851429 13.458286-13.458286-0.585143-153.307429-79.579429-276.772571-222.939429-348.16z m148.041143 295.497143H88.941714c15.798857-103.570286 87.186286-179.053714 148.041143-214.747429 81.92 59.099429 168.521143 85.430857 279.113143 85.430857 96.548571 0 203.629714-36.278857 275.017143-93.037714 79.579429 46.226286 139.849143 138.678857 147.456 222.354286zM510.829714 135.753143c-158.573714 0-287.890286 126.390857-287.890285 282.038857s129.316571 282.624 287.890285 282.624 287.305143-126.976 287.305143-282.624-128.731429-282.038857-287.305143-282.038857z m215.332572 281.453714c0 116.443429-96.548571 210.651429-215.332572 210.651429-118.784 0-215.332571-94.793143-215.332571-210.651429 0-114.102857 98.889143-210.651429 215.332571-210.651428 118.198857 0 215.332571 94.208 215.332572 210.651428z" /></svg>