<?xml version="1.0" standalone="no"?><!DOCTYPE svg PUBLIC "-//W3C//DTD SVG 1.1//EN" "http://www.w3.org/Graphics/SVG/1.1/DTD/svg11.dtd"><svg t="1729845026885" class="icon" viewBox="0 0 1137 1024" version="1.1" xmlns="http://www.w3.org/2000/svg" p-id="16486" xmlns:xlink="http://www.w3.org/1999/xlink" width="222.0703125" height="200"><path d="M28.444444 170.325333A141.880889 141.880889 0 0 1 170.382222 28.444444h797.013334A141.994667 141.994667 0 0 1 1109.333333 170.325333v683.349334a141.880889 141.880889 0 0 1-141.937777 141.880889H170.382222A141.994667 141.994667 0 0 1 28.444444 853.674667V170.325333z m56.888889 0v683.349334c0 46.876444 38.115556 84.992 85.048889 84.992h797.013334c46.990222 0 85.048889-38.058667 85.048888-84.992V170.325333c0-46.876444-38.115556-84.992-85.048888-84.992H170.382222C123.448889 85.333333 85.333333 123.392 85.333333 170.325333z" fill="#1B76ED" p-id="16487"></path><path d="M496.526222 654.904889v46.421333c-64.170667 30.037333-137.898667 54.613333-221.184 72.362667l-6.144-48.469333c87.381333-17.749333 163.157333-40.96 227.328-70.314667zM389.347556 182.499556l46.421333 18.432C398.904889 285.582222 362.040889 353.166222 324.494222 403.683556c32.768-2.730667 64.853333-7.509333 97.621334-12.970667 14.336-25.258667 29.354667-52.565333 45.056-81.92l44.373333 17.066667c-65.536 117.418667-119.466667 200.704-162.474667 250.538666A1062.513778 1062.513778 0 0 0 500.622222 531.342222v45.056c-74.410667 26.624-145.408 45.056-213.674666 54.613334l-12.970667-45.738667c8.874667-4.096 16.384-8.874667 22.528-14.336 27.306667-26.624 60.074667-71.68 98.986667-135.168-39.594667 6.144-79.189333 11.605333-120.149334 17.066667l-12.288-45.738667c7.509333-2.730667 14.336-8.874667 21.162667-18.432 40.277333-60.074667 75.093333-128.341333 105.130667-206.165333z m432.128 31.402666v522.24h58.026666v47.786667H484.920889v-47.786667h59.392V213.902222h277.162667z m-228.693334 522.24h180.224v-129.706666H592.782222v129.706666z m0-176.128h180.224V430.990222H592.782222v129.024z m0-175.445333h180.224V261.006222H592.782222V384.568889z" fill="#1B76ED" p-id="16488"></path></svg>