<?xml version="1.0" standalone="no"?><!DOCTYPE svg PUBLIC "-//W3C//DTD SVG 1.1//EN" "http://www.w3.org/Graphics/SVG/1.1/DTD/svg11.dtd"><svg t="1729845095628" class="icon" viewBox="0 0 1024 1024" version="1.1" xmlns="http://www.w3.org/2000/svg" p-id="20053" xmlns:xlink="http://www.w3.org/1999/xlink" width="200" height="200"><path d="M512 512m-512 0a512 512 0 1 0 1024 0 512 512 0 1 0-1024 0Z" fill="#5197FE" opacity=".2" p-id="20054"></path><path d="M512 618.261333l-197.056-103.530666 48.896-25.685334 139.456 73.258667a18.261333 18.261333 0 0 0 8.682667 2.176c2.986667 0 5.994667-0.704 8.704-2.176l139.456-73.258667 48.896 25.685334-197.056 103.530666z m197.034667-10.176l-197.056 103.488-197.034667-103.466666 48.597333-25.6 139.733334 73.429333a18.261333 18.261333 0 0 0 8.704 2.154667c2.986667 0 5.994667-0.704 8.704-2.154667l139.733333-73.386667 48.618667 25.536zM511.978667 317.653333l197.056 103.488-197.056 103.530667-197.034667-103.530667 197.034667-103.466666zM768 514.773333a18.666667 18.666667 0 0 0-10.026667-16.533333l-57.6-30.272 57.6-30.250667a18.709333 18.709333 0 0 0 0-33.109333l-237.290666-124.608a18.56 18.56 0 0 0-17.386667 0L266.026667 404.586667a18.688 18.688 0 0 0 0 33.109333l57.6 30.250667-57.6 30.250666a18.666667 18.666667 0 0 0 0 33.109334l57.322666 30.101333-57.322666 30.122667a18.688 18.688 0 0 0 0 33.109333l237.226666 124.586667a18.282667 18.282667 0 0 0 17.386667 0l237.290667-124.586667a18.688 18.688 0 0 0 0-33.109333l-57.322667-30.122667 57.322667-30.101333c6.186667-3.221333 10.026667-9.6 10.048-16.576z" fill="#556FE6" p-id="20055"></path></svg>