<?xml version="1.0" standalone="no"?><!DOCTYPE svg PUBLIC "-//W3C//DTD SVG 1.1//EN" "http://www.w3.org/Graphics/SVG/1.1/DTD/svg11.dtd"><svg t="1732189799055" class="icon" viewBox="0 0 1024 1024" version="1.1" xmlns="http://www.w3.org/2000/svg" p-id="7935" xmlns:xlink="http://www.w3.org/1999/xlink" width="200" height="200"><path d="M869.741885 181.014801L530.114775 15.422488a53.912231 53.912231 0 0 0-46.533368-0.398858L138.96858 176.427941a53.779278 53.779278 0 0 0-2.260193 96.191119l345.211114 181.812516a53.646326 53.646326 0 0 0 49.990133 0l339.028824-177.690989a53.712802 53.712802 0 0 0-1.196573-95.725786z m-25.128018 72.592054L529.84887 419.265645a50.721371 50.721371 0 0 1-47.131654 0L163.298883 251.546092a28.850688 28.850688 0 0 1 1.396001-51.652039L485.376266 48.992989a50.854324 50.854324 0 0 1 43.807842 0l314.831472 152.895352a28.850688 28.850688 0 0 1 0.598287 51.718514zM452.005193 506.681901L88.247209 296.151649a48.527655 48.527655 0 0 0-73.123864 42.012984v352.324071a48.527655 48.527655 0 0 0 19.278109 38.755648l364.02389 275.012205a48.594131 48.594131 0 0 0 77.843677-38.755648v-416.806025a48.594131 48.594131 0 0 0-24.263828-42.012983z m-12.696961 441.136328a27.05583 27.05583 0 0 1-43.342509 21.338873l-340.690729-259.257336a26.590496 26.590496 0 0 1-10.769151-21.338873V351.260452c0-20.607634 15.954298-33.23812 33.969358-23.200208l347.338354 205.478058a26.590496 26.590496 0 0 1 13.295248 23.133731zM935.686315 296.151649L571.92833 506.748377a48.527655 48.527655 0 0 0-24.263827 42.012984v416.606595a48.594131 48.594131 0 0 0 77.843677 38.888601L989.266165 729.576733a48.594131 48.594131 0 0 0 19.344585-38.755648v-352.324071a48.594131 48.594131 0 0 0-72.924435-42.345365z m43.741366 392.209816a26.590496 26.590496 0 0 1-10.769151 21.338873l-340.690729 259.257335a27.05583 27.05583 0 0 1-43.342509-21.405349V556.738509a26.590496 26.590496 0 0 1 13.295248-23.133731l347.338354-205.478058c18.015061-10.303817 33.969359 2.592573 33.969358 23.200208z" fill="#409EFF" p-id="7936"></path></svg>