<?xml version="1.0" standalone="no"?><!DOCTYPE svg PUBLIC "-//W3C//DTD SVG 1.1//EN" "http://www.w3.org/Graphics/SVG/1.1/DTD/svg11.dtd"><svg t="1729845324731" class="icon" viewBox="0 0 1024 1024" version="1.1" xmlns="http://www.w3.org/2000/svg" p-id="26635" xmlns:xlink="http://www.w3.org/1999/xlink" width="200" height="200"><path d="M77.57824 370.176l389.75488 248.05376a86.2208 86.2208 0 0 0 90.624 0l389.5296-248.03328a63.11936 63.11936 0 0 0 0-109.17888L557.95712 12.98432a85.7088 85.7088 0 0 0-90.624 0L77.57824 260.9152a63.11936 63.11936 0 0 0 0 109.17888z" fill="#409EFF" p-id="26636"></path><path d="M65.72032 550.31808l417.6896 270.76608a53.63712 53.63712 0 0 0 17.67424 7.33184h1.1264a63.22176 63.22176 0 0 0 6.43072 1.6384h8.192a62.99648 62.99648 0 0 0 6.81984-0.88064h1.1264a54.29248 54.29248 0 0 0 17.79712-7.33184l416.54272-270.76608a54.66112 54.66112 0 0 0-59.20768-91.89376l-362.496 235.4176a73.216 73.216 0 0 1-50.4832 0L124.78464 459.18208a54.33344 54.33344 0 1 0-59.20768 91.136z" fill="#409EFF" p-id="26637"></path><path d="M977.7152 659.61984a54.272 54.272 0 0 0-75.776-16.03584L547.36896 874.20928a63.11936 63.11936 0 0 1-32.5632 8.06912 64.75776 64.75776 0 0 1-30.72-7.0656L127.36512 643.584a54.33344 54.33344 0 1 0-59.20768 91.136l416.5632 270.76608a53.67808 53.67808 0 0 0 17.67424 7.31136h1.1264l6.94272 0.75776h8.06912l6.94272-0.75776h1.1264a53.67808 53.67808 0 0 0 17.67424-7.31136l416.54272-270.76608a54.14912 54.14912 0 0 0 16.7936-75.10016z" fill="#409EFF" p-id="26638"></path></svg>