<?xml version="1.0" standalone="no"?><!DOCTYPE svg PUBLIC "-//W3C//DTD SVG 1.1//EN" "http://www.w3.org/Graphics/SVG/1.1/DTD/svg11.dtd"><svg t="1741255660372" class="icon" viewBox="0 0 1024 1024" version="1.1" xmlns="http://www.w3.org/2000/svg" p-id="59633" xmlns:xlink="http://www.w3.org/1999/xlink" width="200" height="200"><path d="M511.798288 209.076299H209.101913v606.161177h184.998906V511.772674h117.697469z m302.76041 0H555.598652v302.696375h258.960046z m-29.200242 273.175954H585.247144v-243.975712h200.111312z" p-id="59634"></path><path d="M432.009906 559.92746h409.443753v281.756727H432.009906v-281.756727zM79.878032 0a79.852418 79.852418 0 0 0-17.929973 157.655696v11.270269h32.01781v-10.245699a80.236632 80.236632 0 0 0 64.483869-62.947014H166.518226v-32.01781h-7.812346A81.005059 81.005059 0 0 0 79.878032 0z m0 128.07124a48.026715 48.026715 0 1 1 34.130986-14.087837 48.09075 48.09075 0 0 1-34.130986 14.087837z m845.270182 29.712527v11.270269h32.01781v-10.245699A79.916454 79.916454 0 1 0 865.531052 64.03562h-12.807124v32.01781h12.807124a79.916454 79.916454 0 0 0 59.873304 61.602266zM943.846615 32.01781a48.026715 48.026715 0 1 1-34.002914 14.087836 48.09075 48.09075 0 0 1 34.002914-14.087836z m-850.136889 832.463057v-10.245699h-32.01781v11.270269a79.916454 79.916454 0 1 0 96.501679 94.196397h8.324631v-32.01781h-8.324631a80.236632 80.236632 0 0 0-64.483869-63.203157z m-13.831694 126.406314a18.57033 18.57033 0 1 1 0 0.512285zM957.678309 864.480867v-10.245699h-32.01781v11.270269a79.788382 79.788382 0 0 0-59.873305 61.922445h-12.807124v32.01781h12.807124a80.172596 80.172596 0 0 0 158.808337-15.624692 82.1577 82.1577 0 0 0-67.045294-78.827848z m-13.831694 126.406314a48.09075 48.09075 0 1 1 48.09075-48.09075 48.731107 48.731107 0 0 1-48.09075 48.603035zM199.624641 64.03562h32.786238v32.01781h-32.786238z m130.504594 0h32.786237v32.01781h-32.786237zM264.620795 64.03562h32.786238v32.01781h-32.786238z m130.568629 0h32.786238v32.01781h-32.786238z m326.581661 0h32.786238v32.01781h-32.850273zM525.694017 64.03562h32.722202v32.01781h-32.722202z m261.521472 0h32.466059v32.01781h-32.786237z m-130.504593 0h32.786237v32.01781h-32.786237zM591.202457 64.03562h32.786237v32.01781h-32.786237zM460.697863 64.03562h32.786238v32.01781h-32.786238z m0 863.456297h32.786238v32.01781h-32.786238z m-130.504593 0h32.786238v32.01781h-32.850273z m64.996154 0h32.786238v32.01781h-32.786238z m-195.500747 0h32.786237v32.01781h-32.850273v-32.01781z m64.996154 0h32.786237v32.01781h-32.850273z m261.009186 0h32.722202v32.01781h-32.722202z m196.013033 0h32.786237v32.01781h-32.786237v-32.01781z m-64.996154 0h32.786237v32.01781h-32.786237z m-65.508439 0h32.786237v32.01781h-32.786237z m196.013032 0h32.466059v32.01781h-32.786237z m138.188867-464.770528h32.01781v32.786237h-32.01781z m0-261.009187h32.01781v32.786238h-32.01781z m0 326.581661h32.01781v32.658167h-32.01781z m0 64.996155h32.01781v32.786237h-32.01781z m0-261.009187h32.01781V365.003033h-32.01781z m0 65.508439h32.01781v32.786238h-32.01781z m0-130.504593h32.01781v32.786237h-32.01781z m0 391.577815h32.01781v32.722202h-32.01781z m0 65.508439h32.01781v32.786238h-32.01781z m0 64.996154h32.01781v32.786238h-32.01781zM61.948059 397.725235h32.01781v32.786237h-32.01781z m0-65.508439h32.01781V365.003033h-32.01781z m0 457.086254h32.01781v32.786237h-32.01781z m0-587.590848h32.01781v32.786238h-32.01781z m0 522.594694h32.01781v32.786237h-32.01781z m0-131.016878h32.01781v32.786237h-32.01781z m0 65.508439h32.01781v32.786237h-32.01781z m0-130.504594h32.01781v32.658167h-32.01781z m0-261.009186h32.01781v32.786237h-32.01781z m0 195.500747h32.01781v32.786238h-32.01781z" p-id="59635"></path></svg>