<?xml version="1.0" standalone="no"?><!DOCTYPE svg PUBLIC "-//W3C//DTD SVG 1.1//EN" "http://www.w3.org/Graphics/SVG/1.1/DTD/svg11.dtd"><svg t="1741255670016" class="icon" viewBox="0 0 1024 1024" version="1.1" xmlns="http://www.w3.org/2000/svg" p-id="59777" xmlns:xlink="http://www.w3.org/1999/xlink" width="200" height="200"><path d="M921.6 793.7v51.2H102.4v-51.2H0v204.8h102.4v-51.2h819.2v51.2H1024V793.7H921.6zM964.09 205.42l-169.47-171a29.18 29.18 0 0 0-42 0L311.81 479.33l211.45 212 440.83-445.47a30.19 30.19 0 0 0 0-40.44z" p-id="59778"></path><path d="M274.43 517.74l-23 23a30.12 30.12 0 0 0-8.19 15.35L204.8 757.86a30.21 30.21 0 0 0 33.79 35.33L446 762.47a30.21 30.21 0 0 0 16.9-8.71l22.53-22.52z" p-id="59779"></path></svg>