<?xml version="1.0" standalone="no"?><!DOCTYPE svg PUBLIC "-//W3C//DTD SVG 1.1//EN" "http://www.w3.org/Graphics/SVG/1.1/DTD/svg11.dtd"><svg t="1730354809238" class="icon" viewBox="0 0 1024 1024" version="1.1" xmlns="http://www.w3.org/2000/svg" p-id="10266" xmlns:xlink="http://www.w3.org/1999/xlink" width="200" height="200"><path d="M426.666667 458.666667a32 32 0 0 1 32 32v213.333333a32 32 0 0 1-64 0v-213.333333a32 32 0 0 1 32-32zM597.333333 458.666667a32 32 0 0 1 32 32v213.333333a32 32 0 0 1-64 0v-213.333333a32 32 0 0 1 32-32z" p-id="10267"></path><path d="M714.666667 266.666667V201.813333A74.666667 74.666667 0 0 0 640 127.146667H384a74.666667 74.666667 0 0 0-74.666667 74.666666v64.853334h-149.333333a32 32 0 0 0 0 64h64v490.666666c0 41.216 33.450667 74.666667 74.666667 74.666667h426.666666a74.666667 74.666667 0 0 0 74.666667-74.666667V330.666667h64a32 32 0 0 0 0-64h-149.333333zM384 191.146667h256a10.666667 10.666667 0 0 1 10.666667 10.666666v64.853334h-277.333334V201.813333A10.666667 10.666667 0 0 1 384 191.146667z m352 139.52v490.666666a10.666667 10.666667 0 0 1-10.666667 10.666667H298.666667a10.666667 10.666667 0 0 1-10.666667-10.666667V330.666667h448z" p-id="10268"></path></svg>