<?xml version="1.0" standalone="no"?><!DOCTYPE svg PUBLIC "-//W3C//DTD SVG 1.1//EN" "http://www.w3.org/Graphics/SVG/1.1/DTD/svg11.dtd"><svg class="icon" width="200px" height="200.00px" viewBox="0 0 1024 1024" version="1.1" xmlns="http://www.w3.org/2000/svg"><path d="M497.28 281.6c-19.2 0-39.04 17.28-39.04 0V173.44a35.2 35.2 0 0 1 70.4 0v103.68c0 19.2-11.52 4.48-31.36 4.48zM161.28 896a35.84 35.84 0 0 1-28.16-14.08 34.56 34.56 0 0 1 6.4-49.28l101.12-77.44a35.84 35.84 0 0 1 49.92 7.04 34.56 34.56 0 0 1-6.4 49.28l-101.76 76.8a34.56 34.56 0 0 1-21.12 7.68z m696.32 4.48a36.48 36.48 0 0 1-22.4-7.68l-106.24-88.96a34.56 34.56 0 0 1-5.12-49.28 35.84 35.84 0 0 1 49.92-5.76l106.24 88.96a35.2 35.2 0 0 1-22.4 62.72z"  /><path d="M493.44 188.16A93.44 93.44 0 1 1 492.16 1.28a93.44 93.44 0 0 1 1.28 186.88z m0-124.16a29.44 29.44 0 1 0-8.64 58.24A29.44 29.44 0 0 0 493.44 64zM99.84 1011.2A93.44 93.44 0 1 1 192 917.76a92.8 92.8 0 0 1-92.16 93.44z m0-122.24a28.8 28.8 0 0 0-28.8 28.8c0 16 12.8 29.12 28.8 29.44a30.08 30.08 0 0 0 28.16-29.44 29.44 29.44 0 0 0-28.16-28.8z m824.32 122.24a93.44 93.44 0 1 1 92.8-93.44 92.8 92.8 0 0 1-92.8 93.44z m0-122.24a28.8 28.8 0 1 0 0 57.6 28.8 28.8 0 0 0 0-57.6z m-426.88 28.16a330.88 330.88 0 1 1 0-661.76 330.88 330.88 0 0 1 0 661.76z m0-597.12a266.88 266.88 0 1 0 0 533.76 266.88 266.88 0 0 0 0-533.76z"  /></svg>