<?xml version="1.0" standalone="no"?><!DOCTYPE svg PUBLIC "-//W3C//DTD SVG 1.1//EN" "http://www.w3.org/Graphics/SVG/1.1/DTD/svg11.dtd"><svg t="1730355352754" class="icon" viewBox="0 0 1024 1024" version="1.1" xmlns="http://www.w3.org/2000/svg" p-id="27123" xmlns:xlink="http://www.w3.org/1999/xlink" width="200" height="200"><path d="M213.333333 640H128v170.666667c0 47.146667 38.186667 85.333333 85.333333 85.333333h170.666667v-85.333333h-170.666667v-170.666667z m0-426.666667h170.666667V128h-170.666667c-47.146667 0-85.333333 38.186667-85.333333 85.333333v170.666667h85.333333v-170.666667z m597.333334-85.333333h-170.666667v85.333333h170.666667v170.666667h85.333333v-170.666667c0-47.146667-38.186667-85.333333-85.333333-85.333333z m0 682.666667h-170.666667v85.333333h170.666667c47.146667 0 85.333333-38.186667 85.333333-85.333333v-170.666667h-85.333333v170.666667zM512 384c-70.613333 0-128 57.386667-128 128s57.386667 128 128 128 128-57.386667 128-128-57.386667-128-128-128z" p-id="27124"></path></svg>