<svg xmlns="http://www.w3.org/2000/svg" fill="none" viewBox="0 0 48 48"><path stroke-linecap="round" stroke-width="4" stroke="#4a90e2" d="M43 26v6a2 2 0 0 1-2 2H7a2 2 0 0 1-2-2V12a2 2 0 0 1 2-2h9M4 40h40" data-follow-stroke="#4a90e2"/><circle stroke-width="4" stroke="#4a90e2" r="9" cy="17" cx="30" data-follow-stroke="#4a90e2"/><path stroke-linecap="round" stroke-width="4" stroke="#4a90e2" d="M19 18v-2M41 18v-2M30 8c-.167-1-1.2-3.2-4-4M30 8c.083-1 .6-3.2 2-4" data-follow-stroke="#4a90e2"/><circle fill="#4a90e2" r="2" cy="16" cx="33" data-follow-fill="#4a90e2"/><circle fill="#4a90e2" r="2" cy="16" cx="27" data-follow-fill="#4a90e2"/></svg>