<?xml version="1.0" standalone="no"?><!DOCTYPE svg PUBLIC "-//W3C//DTD SVG 1.1//EN" "http://www.w3.org/Graphics/SVG/1.1/DTD/svg11.dtd"><svg class="icon" width="200px" height="200.00px" viewBox="0 0 1024 1024" version="1.1" xmlns="http://www.w3.org/2000/svg"><path d="M902.894933 626.141867v222.890666a109.226667 109.226667 0 0 1-109.226666 109.226667H221.934933a109.226667 109.226667 0 0 1-109.226666-109.226667V649.284267h68.676266v199.748266c0 22.391467 18.158933 40.5504 40.5504 40.5504h571.733334a40.5504 40.5504 0 0 0 40.618666-40.5504V626.141867h68.608zM783.5648 65.672533c39.253333 0 74.683733 23.893333 89.565867 60.279467l73.5232 180.224a220.228267 220.228267 0 0 1-20.48 204.936533 157.969067 157.969067 0 0 1-187.118934 60.484267l-95.778133-35.976533-52.292267 29.354666a169.642667 169.642667 0 0 1-166.0928 0.273067l-51.746133-28.945067-65.058133 30.037334A159.402667 159.402667 0 0 1 126.293333 531.797333l-13.9264-14.5408a198.4512 198.4512 0 0 1-38.7072-216.541866l77.0048-176.9472a96.733867 96.733867 0 0 1 88.746667-58.094934h544.085333z m0 68.744534H239.4112a28.0576 28.0576 0 0 0-25.736533 16.861866L136.669867 328.157867a129.706667 129.706667 0 0 0 25.258666 141.653333l13.9264 14.5408a90.794667 90.794667 0 0 0 103.492267 19.592533l75.229867-34.6112c13.585067-6.280533 29.354667-5.666133 42.3936 1.6384l61.44 34.4064c30.72 17.2032 68.266667 17.066667 98.9184-0.136533l61.098666-34.474667a46.830933 46.830933 0 0 1 39.458134-3.003733l105.335466 39.594667c38.912 14.609067 82.807467 0.4096 105.813334-34.2016a151.552 151.552 0 0 0 13.994666-141.1072l-73.5232-180.224a28.0576 28.0576 0 0 0-25.941333-17.408z" /></svg>