<?xml version="1.0" encoding="UTF-8"?>
<svg width="14px" height="14px" viewBox="0 0 14 14" version="1.1" xmlns="http://www.w3.org/2000/svg" xmlns:xlink="http://www.w3.org/1999/xlink">
    <!-- Generator: Sketch 64 (93537) - https://sketch.com -->
    <title>ic_shuju</title>
    <desc>Created with Sketch.</desc>
    <g id="ic_shuju" stroke="none" stroke-width="1" fill="none" fill-rule="evenodd">
        <path d="M11.8729989,1 C12.4954237,1 13,1.38087111 13,1.85069817 L13,2.7207304 C13,3.19055747 12.4954237,3.57142857 11.8729989,3.57142857 L2.12700107,3.57142857 C1.50457631,3.57142857 1,3.19055747 1,2.7207304 L1,1.85069817 C1,1.38087111 1.50457631,1 2.12700107,1 L11.8729989,1 Z M11.8729989,5.28571429 C12.4954237,5.28571429 13,5.66658539 13,6.13641246 L13,7.00644468 C13,7.47627175 12.4954237,7.85714286 11.8729989,7.85714286 L2.12700107,7.85714286 C1.50457631,7.85714286 1,7.47627175 1,7.00644468 L1,6.13641246 C1,5.66658539 1.50457631,5.28571429 2.12700107,5.28571429 L11.8729989,5.28571429 Z M11.8729989,9.57142857 C12.4954237,9.57142857 13,9.95229968 13,10.4221267 L13,11.292159 C13,11.761986 12.4954237,12.1428571 11.8729989,12.1428571 L2.12700107,12.1428571 C1.50457631,12.1428571 1,11.761986 1,11.292159 L1,10.4221267 C1,9.95229968 1.50457631,9.57142857 2.12700107,9.57142857 L11.8729989,9.57142857 Z M10.7135234,1.92077355 C10.4768259,1.92077355 10.284952,2.1126475 10.284952,2.34934498 C10.284952,2.58604246 10.4768259,2.77791641 10.7135234,2.77791641 C10.9502209,2.77791641 11.1420948,2.58604246 11.1420948,2.34934498 C11.1420948,2.1126475 10.9502209,1.92077355 10.7135234,1.92077355 Z M10.7135234,6.20648784 C10.4768259,6.20648784 10.284952,6.39836178 10.284952,6.63505926 C10.284952,6.87175674 10.4768259,7.06363069 10.7135234,7.06363069 C10.9502209,7.06363069 11.1420948,6.87175674 11.1420948,6.63505926 C11.1420948,6.39836178 10.9502209,6.20648784 10.7135234,6.20648784 Z M10.7135234,10.4922021 C10.4768259,10.4922021 10.284952,10.6840761 10.284952,10.9207735 C10.284952,11.157471 10.4768259,11.349345 10.7135234,11.349345 C10.9502209,11.349345 11.1420948,11.157471 11.1420948,10.9207735 C11.1420948,10.6840761 10.9502209,10.4922021 10.7135234,10.4922021 Z" id="形状" fill="#FFFFFF" fill-rule="nonzero"></path>
    </g>
</svg>