<svg xmlns="http://www.w3.org/2000/svg" fill="none" viewBox="0 0 48 48"><path stroke-linecap="round" stroke-width="4" stroke="#4a90e2" d="M24 44c11.046 0 20-8.954 20-20S35.046 4 24 4 4 12.954 4 24s8.954 20 20 20ZM26.122 21.879l-4.243 4.242" data-follow-stroke="#4a90e2"/><path stroke-linecap="round" stroke-width="4" stroke="#4a90e2" d="m32.485 26.828 1.414-1.414a4 4 0 0 0 0-5.657L28.242 14.1a4 4 0 0 0-5.656 0l-1.415 1.415M26.828 32.485 25.414 33.9a4 4 0 0 1-5.657 0L14.1 28.243a4 4 0 0 1 0-5.657l1.415-1.414" data-follow-stroke="#4a90e2"/></svg>