<?xml version="1.0" standalone="no"?><!DOCTYPE svg PUBLIC "-//W3C//DTD SVG 1.1//EN" "http://www.w3.org/Graphics/SVG/1.1/DTD/svg11.dtd"><svg t="1730352432457" class="icon" viewBox="0 0 1024 1024" version="1.1" xmlns="http://www.w3.org/2000/svg" p-id="7813" xmlns:xlink="http://www.w3.org/1999/xlink" width="200" height="200"><path d="M659.925333 494.933333L460.8 345.6a21.333333 21.333333 0 0 0-34.133333 17.066667v298.666666a21.333333 21.333333 0 0 0 34.133333 17.066667l199.125333-149.333333a21.333333 21.333333 0 0 0 0-34.133334z" p-id="7814"></path><path d="M512 85.333333C276.352 85.333333 85.333333 276.352 85.333333 512s191.018667 426.666667 426.666667 426.666667 426.666667-191.018667 426.666667-426.666667S747.648 85.333333 512 85.333333zM149.333333 512a362.666667 362.666667 0 1 1 725.333334 0 362.666667 362.666667 0 0 1-725.333334 0z" p-id="7815"></path></svg>