<?xml version="1.0" standalone="no"?><!DOCTYPE svg PUBLIC "-//W3C//DTD SVG 1.1//EN" "http://www.w3.org/Graphics/SVG/1.1/DTD/svg11.dtd"><svg t="1730352405803" class="icon" viewBox="0 0 1024 1024" version="1.1" xmlns="http://www.w3.org/2000/svg" p-id="7652" xmlns:xlink="http://www.w3.org/1999/xlink" width="200" height="200"><path d="M202.666667 128A74.666667 74.666667 0 0 0 128 202.666667v618.666666c0 41.216 33.450667 74.666667 74.666667 74.666667h618.666666A74.666667 74.666667 0 0 0 896 821.333333V358.997333c0-19.797333-7.850667-38.784-21.888-52.778666l-156.330667-156.330667A74.666667 74.666667 0 0 0 665.002667 128H202.666667zM192 202.666667a10.666667 10.666667 0 0 1 10.666667-10.666667H256v140.8c0 4.693333 3.84 8.533333 8.533333 8.533333h366.933334a8.533333 8.533333 0 0 0 8.533333-8.533333V192h25.002667a10.666667 10.666667 0 0 1 7.552 3.114667l156.330666 156.330666a10.666667 10.666667 0 0 1 3.114667 7.552V821.333333a10.666667 10.666667 0 0 1-10.666667 10.666667h-21.333333v-268.8a40.533333 40.533333 0 0 0-40.533333-40.533333H264.533333a40.533333 40.533333 0 0 0-40.533333 40.533333v268.8h-21.333333a10.666667 10.666667 0 0 1-10.666667-10.666667V202.666667z m544 384v245.333333H288v-245.333333h448z" p-id="7653"></path></svg>