<?xml version="1.0" standalone="no"?><!DOCTYPE svg PUBLIC "-//W3C//DTD SVG 1.1//EN" "http://www.w3.org/Graphics/SVG/1.1/DTD/svg11.dtd"><svg t="1730358828997" class="icon" viewBox="0 0 1024 1024" version="1.1" xmlns="http://www.w3.org/2000/svg" p-id="12833" xmlns:xlink="http://www.w3.org/1999/xlink" width="200" height="200"><path d="M769.28 406.613333a32 32 0 0 0-45.226667-45.226666l-276.053333 276.053333-148.053333-148.053333a32 32 0 0 0-45.226667 45.226666l167.637333 167.68a36.266667 36.266667 0 0 0 51.285334 0l295.68-295.68z" p-id="12834"></path><path d="M202.666667 128A74.666667 74.666667 0 0 0 128 202.666667v618.666666c0 41.216 33.450667 74.666667 74.666667 74.666667h618.666666A74.666667 74.666667 0 0 0 896 821.333333V202.666667A74.666667 74.666667 0 0 0 821.333333 128H202.666667zM192 202.666667a10.666667 10.666667 0 0 1 10.666667-10.666667h618.666666a10.666667 10.666667 0 0 1 10.666667 10.666667v618.666666a10.666667 10.666667 0 0 1-10.666667 10.666667H202.666667a10.666667 10.666667 0 0 1-10.666667-10.666667V202.666667z" p-id="12835"></path></svg>