<?xml version="1.0" standalone="no"?><!DOCTYPE svg PUBLIC "-//W3C//DTD SVG 1.1//EN" "http://www.w3.org/Graphics/SVG/1.1/DTD/svg11.dtd"><svg t="1730281651113" class="icon" viewBox="0 0 1024 1024" version="1.1" xmlns="http://www.w3.org/2000/svg" p-id="5655" xmlns:xlink="http://www.w3.org/1999/xlink" width="200" height="200"><path d="M128.068267 213.447467l85.378133 0 0-85.378133C166.488533 128.068267 128.068267 166.488533 128.068267 213.447467zM128.068267 554.961067l85.378133 0 0-85.378133-85.378133 0L128.068267 554.961067zM298.8256 896.475733l85.378133 0 0-85.378133L298.8256 811.0976 298.8256 896.475733zM128.068267 384.203733l85.378133 0 0-85.378133-85.378133 0L128.068267 384.203733zM554.961067 128.068267l-85.378133 0 0 85.378133 85.378133 0L554.961067 128.068267zM811.0976 128.068267l0 85.378133 85.378133 0C896.475733 166.488533 858.055467 128.068267 811.0976 128.068267zM213.4464 896.475733l0-85.378133-85.378133 0C128.068267 858.055467 166.488533 896.475733 213.4464 896.475733zM128.068267 725.7184l85.378133 0 0-85.378133-85.378133 0L128.068267 725.7184zM384.203733 128.068267 298.8256 128.068267l0 85.378133 85.378133 0L384.203733 128.068267zM469.582933 896.475733l85.378133 0 0-85.378133-85.378133 0L469.582933 896.475733zM811.0976 554.961067l85.378133 0 0-85.378133-85.378133 0L811.0976 554.961067zM811.0976 896.475733c46.957867 0 85.378133-38.420267 85.378133-85.378133l-85.378133 0L811.0976 896.475733zM811.0976 384.203733l85.378133 0 0-85.378133-85.378133 0L811.0976 384.203733zM811.0976 725.7184l85.378133 0 0-85.378133-85.378133 0L811.0976 725.7184zM640.340267 896.475733l85.378133 0 0-85.378133-85.378133 0L640.340267 896.475733zM640.340267 213.447467l85.378133 0 0-85.378133-85.378133 0L640.340267 213.447467zM298.8256 725.7184l426.8928 0L725.7184 298.8256 298.8256 298.8256 298.8256 725.7184zM384.203733 384.203733l256.135467 0 0 256.135467L384.203733 640.3392 384.203733 384.203733z" p-id="5656" fill="#8a8a8a"></path></svg>