<?xml version="1.0" standalone="no"?><!DOCTYPE svg PUBLIC "-//W3C//DTD SVG 1.1//EN" "http://www.w3.org/Graphics/SVG/1.1/DTD/svg11.dtd"><svg t="1735543492562" class="icon" viewBox="0 0 1137 1024" version="1.1" xmlns="http://www.w3.org/2000/svg" p-id="20951" xmlns:xlink="http://www.w3.org/1999/xlink" width="222.0703125" height="200"><path d="M460.155847 922.244778c19.569771 0 35.384876 15.853031 35.384876 35.460728a35.384876 35.384876 0 0 1-35.384876 35.460728H318.540492a315.998698 315.998698 0 0 1-225.204064-93.525299A317.060623 317.060623 0 0 1 0.000759 674.057611c0-85.181598 33.185173-165.394902 93.335669-225.659176a316.529661 316.529661 0 0 1 191.260373-91.629003 388.513041 388.513041 0 0 1 112.602033-242.536206A387.830375 387.830375 0 0 1 672.540954 0.000379c61.591681 0 122.879954 14.75318 177.37949 42.666651a392.646966 392.646966 0 0 1 134.750765 114.119069 35.460728 35.460728 0 0 1-56.77509 42.439095A320.549807 320.549807 0 0 0 817.683419 105.813673a315.088476 315.088476 0 0 0-145.142465-34.891839c-85.06782 0-165.015643 33.336877-225.204065 93.487373a317.060623 317.060623 0 0 0-93.335669 225.583324v0.455111a35.384876 35.384876 0 0 1-35.422802 35.460728c-66.14279 0-128.417138 25.78962-175.217713 72.666047a246.85976 246.85976 0 0 0-72.514343 175.483194 246.897686 246.897686 0 0 0 72.552269 175.52112 246.02539 246.02539 0 0 0 175.217713 72.666047h141.577429zM644.74126 265.481762h417.185031a75.851824 75.851824 0 0 1 75.851824 75.851824v568.888678a75.851824 75.851824 0 0 1-75.851824 75.851824H644.74126a75.851824 75.851824 0 0 1-75.851823-75.851824V341.333586a75.851824 75.851824 0 0 1 75.851823-75.851824z m0 493.036855v151.703647h417.185031v-151.703647H644.74126z m0-417.185031v151.703648h417.185031V341.333586H644.74126z m0 208.592516v151.703647h417.185031v-151.703647H644.74126z m277.769379-131.906322c0-19.607696 15.511698-35.498654 34.588432-35.498654 19.11466 0 34.626358 15.928883 34.626357 35.498654a35.043543 35.043543 0 0 1-34.626357 35.460728 35.043543 35.043543 0 0 1-34.588432-35.460728z m0 212.802292c0-19.607696 15.511698-35.460728 34.588432-35.460728 19.11466 0 34.626358 15.853031 34.626357 35.460728a35.043543 35.043543 0 0 1-34.626357 35.460727 35.043543 35.043543 0 0 1-34.588432-35.460727z m0 212.840217c0-19.607696 15.511698-35.498654 34.588432-35.498654 19.11466 0 34.626358 15.928883 34.626357 35.498654a35.043543 35.043543 0 0 1-34.626357 35.460728 35.043543 35.043543 0 0 1-34.588432-35.460728z" fill="#0000FF" p-id="20952"></path></svg>