<?xml version="1.0" standalone="no"?><!DOCTYPE svg PUBLIC "-//W3C//DTD SVG 1.1//EN" "http://www.w3.org/Graphics/SVG/1.1/DTD/svg11.dtd"><svg class="icon" width="200px" height="200.00px" viewBox="0 0 1024 1024" version="1.1" xmlns="http://www.w3.org/2000/svg"><path d="M1020.34286 473.52725l-474.111662-0.731428L546.962626 0.000731h36.351974A435.49226 435.49226 0 0 1 892.342951 128.00064a435.49226 435.49226 0 0 1 127.999909 309.028351v36.498259zM619.227718 400.018731l326.363195 0.512A364.763168 364.763168 0 0 0 619.666575 74.606392L619.227718 400.091874z m-163.327884 621.421271a454.363104 454.363104 0 0 1-322.340341-133.485619A454.289961 454.289961 0 0 1 0.000731 565.614042a454.289961 454.289961 0 0 1 133.485619-322.340341A454.289961 454.289961 0 0 1 455.972977 109.714939h36.425117v419.400843h419.400843v36.49826a454.289961 454.289961 0 0 1-133.485619 322.340341 454.289961 454.289961 0 0 1-322.340341 133.485619zM419.401575 184.3206A383.560869 383.560869 0 0 0 72.924108 565.614042a383.414583 383.414583 0 0 0 382.975726 382.975726c198.875287 0 362.788312-152.429605 381.220299-346.550609h-417.645415V184.3206z" /></svg>