<?xml version="1.0" standalone="no"?><!DOCTYPE svg PUBLIC "-//W3C//DTD SVG 1.1//EN" "http://www.w3.org/Graphics/SVG/1.1/DTD/svg11.dtd"><svg t="1730352944634" class="icon" viewBox="0 0 1024 1024" version="1.1" xmlns="http://www.w3.org/2000/svg" p-id="9260" xmlns:xlink="http://www.w3.org/1999/xlink" width="200" height="200"><path d="M512 85.333333a32 32 0 0 1 32 32V512a32 32 0 0 1-64 0V117.333333A32 32 0 0 1 512 85.333333z" p-id="9261"></path><path d="M325.248 174.848a32 32 0 0 1-8.789333 44.373333 352 352 0 1 0 391.082666 0 32 32 0 1 1 35.584-53.162666A415.616 415.616 0 0 1 928 512c0 229.76-186.24 416-416 416S96 741.76 96 512a415.616 415.616 0 0 1 184.874667-345.941333 32 32 0 0 1 44.373333 8.789333z" p-id="9262"></path></svg>