<?xml version="1.0" standalone="no"?><!DOCTYPE svg PUBLIC "-//W3C//DTD SVG 1.1//EN" "http://www.w3.org/Graphics/SVG/1.1/DTD/svg11.dtd"><svg t="1741691324328" class="icon" viewBox="0 0 1028 1024" version="1.1" xmlns="http://www.w3.org/2000/svg" p-id="6742" xmlns:xlink="http://www.w3.org/1999/xlink" width="200.78125" height="200"><path d="M198.597975 826.202017c0-86.599117-0.199998-173.198234 2.599974-259.797352 1.399986-45.599535 3.799961-91.399068 7.399924-136.998603 1.799982-22.199774 3.799961-44.199549 6.399935-66.399323l1.799982-15.599841c0.399996-2.599973 0.599994-5.199947 0.999989-7.599922 0.199998-0.99999 1.199988-9.599902 0.199998-2.199978 1.399986-10.79989 2.999969-21.59978 4.799952-32.39967 6.199937-38.199611 14.199855-76.199223 25.399741-112.998848 2.399976-7.999918 5.199947-15.799839 7.999918-23.799757 1.399986-3.799961 2.799971-7.599923 4.199957-11.199886 0.799992-1.799982 1.399986-3.599963 2.199978-5.399945 1.99998-4.999949-2.599973 5.999939 0.799992-1.799981 5.999939-13.799859 12.999867-27.199723 21.199783-39.799595 1.799982-2.799971 3.799961-5.599943 5.599943-8.399914 0.99999-1.399986 1.99998-2.599973 2.99997-3.999959-5.599943 7.399925-1.99998 2.599973-0.799992 0.99999 4.199957-5.199947 8.79991-10.199896 13.599861-14.999847 2.199978-1.99998 4.399955-3.999959 6.799931-5.999939 1.599984-1.399986 6.199937-4.799951-1.399986 0.99999 1.199988-0.799992 2.399976-1.799982 3.599964-2.599974 4.999949-3.599963 10.399894-6.799931 15.999836-9.399904 8.399914-4.199957-4.799951 1.799982 1.99998-0.799992 2.999969-1.199988 5.999939-1.99998 9.199906-2.999969 3.599963-0.99999 7.199927-1.799982 10.999888-2.399976 1.99998-0.399996 8.599912-0.99999-0.799992 0 2.199978-0.199998 4.599953-0.399996 6.999929-0.599994 3.399965-0.199998 6.799931 0 9.999898 0.199998 2.199978 0.199998 8.199916 0.99999-1.399986-0.399996 1.599984 0.199998 3.199967 0.599994 4.799951 0.799992 3.199967 0.599994 6.199937 1.599984 9.199906 2.599974 1.599984 0.399996 2.999969 0.99999 4.399956 1.599983-9.199906-3.599963-1.99998-0.799992 0 0.199998 2.799971 1.399986 5.599943 3.199967 8.399914 4.799951 1.399986 0.799992 2.599973 1.799982 3.999959 2.799972 4.999949 3.599963-5.599943-4.599953-0.799992-0.599994 5.399945 4.399955 10.199896 9.399904 14.799849 14.799849 1.199988 1.399986 2.399976 2.799971 3.399966 4.199957-5.399945-6.799931-1.199988-1.599984-0.199998-0.199998 2.199978 3.199967 4.399955 6.399935 6.399935 9.599902 4.399955 6.999929 8.399914 14.199855 11.999877 21.59978 1.99998 3.999959 3.799961 7.999918 5.599943 11.999878-3.199967-7.199927 0 0 0.399996 1.199988 0.799992 2.199978 1.799982 4.399955 2.599974 6.399934 3.399965 8.999908 6.599933 18.399812 9.399904 27.599719 6.599933 21.399782 11.599882 43.399558 15.999837 65.399333 2.199978 11.399884 4.199957 22.999766 5.999938 34.599647 0.99999 5.999939 1.799982 11.999878 2.599974 17.999817 1.399986 9.999898-0.799992-5.799941 0.599994 4.199957 0.399996 2.999969 0.799992 6.199937 1.199988 9.199906 3.199967 25.799737 5.399945 51.599474 7.399924 77.399211 3.999959 56.199427 5.399945 112.79885 5.399945 169.198275 0 38.599606 59.999388 38.599606 59.999388 0 0-110.598872-4.599953-222.597731-25.999735-331.396621-8.599912-42.19957-20.59979-84.39914-39.599596-123.798738-14.799849-30.599688-36.599627-59.999388-66.599321-77.199213-57.799411-32.999664-129.398681-7.199927-169.198275 41.399578-44.799543 54.599443-64.599341 126.398711-78.399201 194.598016-17.599821 87.399109-24.599749 176.998195-28.599708 265.79729-4.199957 88.799095-4.599953 177.598189-4.599953 266.397284V826.002019c0 38.799604 59.999388 38.799604 59.999388 0.199998z" p-id="6743"></path><path d="M843.391401 197.808423c0 86.599117 0.199998 173.198234-2.599973 259.797352-1.399986 45.599535-3.799961 91.399068-7.399925 136.998603-1.799982 22.199774-3.799961 44.199549-6.399934 66.399323l-1.799982 15.599841c-0.399996 2.599973-0.599994 5.199947-0.99999 7.599922-0.199998 0.99999-1.199988 9.599902-0.199998 2.199978-1.399986 10.79989-2.999969 21.59978-4.799951 32.39967-6.199937 38.199611-14.199855 76.199223-25.399741 112.998848-2.399976 7.999918-5.199947 15.799839-7.999918 23.799757-1.399986 3.799961-2.799971 7.599923-4.199958 11.199886-0.799992 1.799982-1.399986 3.599963-2.199977 5.399945-1.99998 4.999949 2.599973-5.999939-0.799992 1.799981-5.999939 13.799859-12.999867 27.199723-21.199784 39.799595-1.799982 2.799971-3.799961 5.599943-5.599943 8.399914-0.99999 1.399986-1.99998 2.599973-2.999969 3.999959 5.599943-7.399925 1.99998-2.599973 0.799992-0.99999-4.199957 5.199947-8.79991 10.199896-13.599862 14.999847-2.199978 1.99998-4.399955 3.999959-6.79993 5.999939-1.599984 1.399986-6.199937 4.799951 1.399985-0.99999-1.199988 0.799992-2.399976 1.799982-3.599963 2.599974-4.999949 3.599963-10.399894 6.799931-15.999837 9.399904-8.399914 4.199957 4.799951-1.799982-1.999979 0.799992-2.999969 1.199988-6.199937 1.99998-9.199907 2.999969-3.599963 0.99999-7.399925 1.799982-11.199885 2.599974-6.599933 1.199988 7.399925-0.799992 0.799991 0-2.399976 0.199998-4.599953 0.399996-6.999928 0.399996-3.399965 0.199998-6.799931 0-10.199896-0.199998-2.199978-0.199998-8.199916-1.199988 1.399986 0.199998-1.599984-0.199998-3.199967-0.599994-4.799952-0.99999-3.199967-0.599994-6.199937-1.599984-9.399904-2.599974-1.99998-0.599994-7.399925-2.999969 1.199988 0.599994-1.99998-0.799992-3.999959-1.799982-5.799941-2.799971-2.399976-1.199988-4.799951-2.799971-6.999928-4.199957-0.99999-0.599994-1.799982-1.199988-2.799972-1.799982-4.999949-3.599963 5.599943 4.599953 0.599994 0.599994-4.999949-3.999959-9.599902-8.599912-13.999857-13.399863-1.399986-1.599984-7.999918-9.7999-2.399976-2.599974-2.399976-2.999969-4.599953-6.199937-6.79993-9.599902-4.199957-6.399935-7.999918-12.999867-11.399884-19.5998-1.599984-3.199967-3.199967-6.599933-4.799951-9.7999-0.799992-1.599984-5.599943-12.599872-2.399976-5.399945-3.399965-8.199916-6.399935-16.399833-9.199906-24.799747-6.199937-18.399812-11.199886-37.199621-15.599841-56.199427-4.599953-20.199794-8.199916-40.399588-11.399884-60.799381-0.799992-5.199947-1.599984-10.199896-2.199977-15.399843-1.399986-10.199896 0.799992 5.799941-0.599994-4.599953l-1.199988-9.599902c-1.399986-11.79988-2.599973-23.799757-3.799961-35.599637-4.999949-51.599474-7.199927-103.598944-8.199917-155.398416-0.399996-16.399833-13.399863-29.999694-29.999694-29.999694-16.199835 0-30.39969 13.599861-29.999694 29.999694 2.199978 108.798891 7.999918 220.997747 36.999623 326.396673 17.999816 65.599331 53.999449 153.99843 130.998664 165.598311 68.199305 10.399894 123.59874-31.999674 156.598404-88.1991 37.199621-63.599352 52.599464-139.598577 63.599351-211.397845 26.399731-173.198234 24.399751-349.796434 24.399751-524.594652-0.799992-38.599606-60.79938-38.599606-60.79938 0z" p-id="6744"></path><path d="M852.991303 197.808423c43.599555 27.599719 86.999113 54.999439 130.598669 82.599158 13.799859 8.79991 32.999664 2.999969 40.999582-10.79989 8.399914-14.399853 2.999969-32.39967-10.79989-40.999582-43.599555-27.599719-86.999113-54.999439-130.598668-82.599158-13.799859-8.79991-32.999664-2.999969-40.999582 10.79989-8.399914 14.399853-2.999969 32.199672 10.799889 40.999582z" p-id="6745"></path><path d="M852.991303 146.008951c-43.599555 27.599719-86.999113 54.999439-130.598668 82.599158-13.799859 8.79991-19.199804 26.599729-10.79989 40.999582 7.999918 13.799859 27.199723 19.5998 40.999582 10.79989 43.599555-27.599719 86.999113-54.999439 130.598669-82.599158 13.799859-8.79991 19.199804-26.599729 10.799889-40.999582-7.999918-13.799859-27.199723-19.5998-40.999582-10.79989z" p-id="6746"></path><path d="M178.998175 893.401331c43.599555-27.599719 86.999113-54.999439 130.598669-82.599157 13.799859-8.79991 19.199804-26.599729 10.799889-40.999582-7.999918-13.799859-27.199723-19.5998-40.999582-10.79989-43.599555 27.599719-86.999113 54.999439-130.598668 82.599158-13.799859 8.79991-19.199804 26.599729-10.79989 40.999582 7.999918 13.799859 27.199723 19.5998 40.999582 10.799889z" p-id="6747"></path><path d="M178.998175 841.60186C135.598618 814.002141 91.999062 786.60242 48.599505 759.002702c-13.799859-8.79991-32.999664-2.999969-40.999582 10.79989-8.399914 14.399853-2.999969 32.39967 10.799889 40.999582 43.599555 27.599719 86.999113 54.999439 130.598669 82.599157 13.799859 8.79991 32.999664 2.999969 40.999582-10.799889 8.199916-14.399853 2.799971-32.199672-10.999888-40.999582z" p-id="6748"></path></svg>