<?xml version="1.0" standalone="no"?><!DOCTYPE svg PUBLIC "-//W3C//DTD SVG 1.1//EN" "http://www.w3.org/Graphics/SVG/1.1/DTD/svg11.dtd"><svg class="icon" width="200px" height="186.69px" viewBox="0 0 1097 1024" version="1.1" xmlns="http://www.w3.org/2000/svg"><path d="M897.170286 888.612571a165.668571 165.668571 0 1 1 0-331.410285 165.668571 165.668571 0 0 1 0 331.337143z m0-243.053714a77.312 77.312 0 1 0 0 154.624 77.312 77.312 0 0 0 0-154.624z m-144.969143-327.021714l59.245714-65.682286a416.475429 416.475429 0 0 1 128.731429 226.304l-86.820572 17.261714a327.460571 327.460571 0 0 0-101.156571-177.883428z m-138.532572 29.988571H451.657143A93.403429 93.403429 0 0 1 358.4 255.268571V93.257143C358.4 41.764571 400.091429 0.073143 451.657143 0H613.668571c51.492571 0 93.184 41.764571 93.257143 93.257143V255.268571c0 51.492571-41.764571 93.257143-93.257143 93.257143z m4.900572-255.268571a4.900571 4.900571 0 0 0-4.900572-4.900572H451.657143a4.900571 4.900571 0 0 0-4.900572 4.900572V255.268571c0 2.706286 2.194286 4.900571 4.900572 4.900572H613.668571c2.706286 0 4.900571-2.194286 4.900572-4.900572V93.257143zM38.107429 876.324571L0 809.910857l139.556571-240.420571 76.8 1.170285 129.755429 240.493715-38.765714 65.097143H38.107429z m138.093714-194.413714l-61.513143 106.057143h118.784l-57.270857-106.057143z m-50.980572-186.294857a415.451429 415.451429 0 0 1 127.268572-238.811429l60.196571 64.804572a326.582857 326.582857 0 0 0-100.132571 187.757714l-87.332572-13.750857z m408.868572 390.363429a324.754286 324.754286 0 0 0 167.789714-46.518858l45.714286 75.776a414.427429 414.427429 0 0 1-384.804572 22.162286l36.571429-80.457143c42.349714 19.236571 88.283429 29.184 134.802286 29.037715z" /></svg>