<?xml version="1.0" standalone="no"?><!DOCTYPE svg PUBLIC "-//W3C//DTD SVG 1.1//EN" "http://www.w3.org/Graphics/SVG/1.1/DTD/svg11.dtd"><svg class="icon" width="200px" height="200.00px" viewBox="0 0 1024 1024" version="1.1" xmlns="http://www.w3.org/2000/svg"><path d="M179.712 543.36a32.128 32.128 0 0 0 37.44-25.472A329.984 329.984 0 0 1 285.696 371.2a333.824 333.824 0 0 1 99.968-82.432l3.648 8.448c19.648 42.496 54.72 74.88 98.752 91.008a174.976 174.976 0 0 0 134.208-5.44 174.336 174.336 0 0 0 91.072-98.816 174.336 174.336 0 0 0-5.504-134.208 175.68 175.68 0 0 0-232.96-85.568 174.336 174.336 0 0 0-91.072 98.752c-7.232 19.712-10.816 40.128-10.88 60.544A397.952 397.952 0 0 0 236.16 330.752a394.24 394.24 0 0 0-81.92 175.168 32 32 0 0 0 25.472 37.44zM443.904 184.96c10.24-27.968 30.784-50.24 57.856-62.72a111.68 111.68 0 0 1 151.488 139.648c-10.24 27.904-30.784 50.24-57.856 62.72a110.72 110.72 0 0 1-85.248 3.456 110.72 110.72 0 0 1-62.72-57.792 110.784 110.784 0 0 1-3.52-85.312z m188.224 713.984a332.736 332.736 0 0 1-92.48 13.056H539.52a330.56 330.56 0 0 1-167.552-45.376 175.552 175.552 0 0 0-84.736-263.04 174.336 174.336 0 0 0-134.272 5.376 174.336 174.336 0 0 0-91.008 98.752 174.336 174.336 0 0 0 5.376 134.208 175.744 175.744 0 0 0 258.24 71.296 394.24 394.24 0 0 0 213.952 62.784h0.128a396.8 396.8 0 0 0 110.272-15.552 32 32 0 1 0-17.792-61.44z m-358.656-29.44a111.616 111.616 0 0 1-151.488-139.712 110.72 110.72 0 0 1 57.856-62.72 111.168 111.168 0 0 1 148.032 54.4c25.792 55.808 1.408 122.24-54.4 148.032z m723.392-191.808a174.4 174.4 0 0 0-60.672-71.36c1.28-12.352 1.984-27.456 1.984-41.536a393.152 393.152 0 0 0-114.624-277.76 32 32 0 0 0-45.44 45.056 328.064 328.064 0 0 1 95.744 247.68 174.592 174.592 0 0 0-110.016 12.352 174.336 174.336 0 0 0-91.008 98.752 174.336 174.336 0 0 0 5.44 134.272c19.712 42.496 54.784 74.88 98.816 91.008a174.976 174.976 0 0 0 134.208-5.44 174.336 174.336 0 0 0 91.008-98.816 174.336 174.336 0 0 0-5.44-134.208z m-54.592 112.192c-10.24 27.904-30.848 50.24-57.856 62.72a110.72 110.72 0 0 1-85.312 3.456 110.72 110.72 0 0 1-62.72-57.792 110.784 110.784 0 0 1-3.456-85.312c10.24-27.968 30.784-50.24 57.792-62.72a111.68 111.68 0 0 1 151.488 139.648z" /></svg>